<mxfile host="Electron" modified="2024-07-03T03:15:02.353Z" agent="Mozilla/5.0 (Macintosh; Intel Mac OS X 10_15_7) AppleWebKit/537.36 (KHTML, like Gecko) draw.io/24.6.4 Chrome/124.0.6367.207 Electron/30.0.6 Safari/537.36" etag="ftvcdpmYEVewUuShBY-7" version="24.6.4" type="device">
  <diagram name="Page-1" id="i7xpU4-JEb5dhHLzun7G">
    <mxGraphModel dx="1793" dy="1068" grid="1" gridSize="10" guides="1" tooltips="1" connect="1" arrows="1" fold="1" page="1" pageScale="1" pageWidth="850" pageHeight="1100" math="0" shadow="0">
      <root>
        <mxCell id="0" />
        <mxCell id="1" parent="0" />
        <mxCell id="7CjUzNVX25jVzaEthu2g-2" value="" style="rounded=0;whiteSpace=wrap;html=1;" vertex="1" parent="1">
          <mxGeometry y="40" width="720" height="620" as="geometry" />
        </mxCell>
        <mxCell id="7CjUzNVX25jVzaEthu2g-3" value="" style="group" vertex="1" connectable="0" parent="1">
          <mxGeometry x="50" y="450" width="160" height="160" as="geometry" />
        </mxCell>
        <mxCell id="7CjUzNVX25jVzaEthu2g-4" value="" style="rounded=0;whiteSpace=wrap;html=1;fillColor=#d5e8d4;strokeColor=#82b366;" vertex="1" parent="7CjUzNVX25jVzaEthu2g-3">
          <mxGeometry width="160" height="160" as="geometry" />
        </mxCell>
        <mxCell id="7CjUzNVX25jVzaEthu2g-5" value="" style="aspect=fixed;sketch=0;html=1;dashed=0;whitespace=wrap;verticalLabelPosition=bottom;verticalAlign=top;fillColor=#2875E2;strokeColor=#ffffff;points=[[0.005,0.63,0],[0.1,0.2,0],[0.9,0.2,0],[0.5,0,0],[0.995,0.63,0],[0.72,0.99,0],[0.5,1,0],[0.28,0.99,0]];shape=mxgraph.kubernetes.icon2;kubernetesLabel=1;prIcon=pod" vertex="1" parent="7CjUzNVX25jVzaEthu2g-3">
          <mxGeometry width="22.727272727272727" height="21.81818181818182" as="geometry" />
        </mxCell>
        <mxCell id="7CjUzNVX25jVzaEthu2g-6" value="apiserver" style="rounded=0;whiteSpace=wrap;html=1;fillColor=#dae8fc;strokeColor=#6c8ebf;" vertex="1" parent="7CjUzNVX25jVzaEthu2g-3">
          <mxGeometry x="28.75" y="40" width="102.5" height="70" as="geometry" />
        </mxCell>
        <mxCell id="7CjUzNVX25jVzaEthu2g-7" value="" style="image;sketch=0;aspect=fixed;html=1;points=[];align=center;fontSize=12;image=img/lib/mscae/Docker.svg;" vertex="1" parent="7CjUzNVX25jVzaEthu2g-3">
          <mxGeometry x="28.75" y="40" width="22.727272727272727" height="18.636363636363637" as="geometry" />
        </mxCell>
        <mxCell id="7CjUzNVX25jVzaEthu2g-8" style="edgeStyle=orthogonalEdgeStyle;rounded=0;orthogonalLoop=1;jettySize=auto;html=1;exitX=0.5;exitY=1;exitDx=0;exitDy=0;startArrow=oval;startFill=0;endArrow=oval;endFill=0;" edge="1" parent="7CjUzNVX25jVzaEthu2g-3" source="7CjUzNVX25jVzaEthu2g-10">
          <mxGeometry relative="1" as="geometry">
            <mxPoint x="79.96999999999997" y="110" as="sourcePoint" />
            <mxPoint x="80" y="160" as="targetPoint" />
            <Array as="points">
              <mxPoint x="80" y="105" />
            </Array>
          </mxGeometry>
        </mxCell>
        <mxCell id="7CjUzNVX25jVzaEthu2g-9" value="exposed" style="edgeLabel;html=1;align=center;verticalAlign=middle;resizable=0;points=[];" vertex="1" connectable="0" parent="7CjUzNVX25jVzaEthu2g-8">
          <mxGeometry x="-0.0648" relative="1" as="geometry">
            <mxPoint as="offset" />
          </mxGeometry>
        </mxCell>
        <mxCell id="7CjUzNVX25jVzaEthu2g-10" value="&lt;font style=&quot;font-size: 11px;&quot;&gt;port: 8000&lt;/font&gt;" style="rounded=0;whiteSpace=wrap;html=1;" vertex="1" parent="7CjUzNVX25jVzaEthu2g-3">
          <mxGeometry x="50" y="100" width="60" height="10" as="geometry" />
        </mxCell>
        <mxCell id="7CjUzNVX25jVzaEthu2g-11" value="simple-deployment-794f78c89-4tl2w" style="text;html=1;align=center;verticalAlign=middle;whiteSpace=wrap;rounded=0;" vertex="1" parent="7CjUzNVX25jVzaEthu2g-3">
          <mxGeometry y="120" width="30" height="30" as="geometry" />
        </mxCell>
        <mxCell id="7CjUzNVX25jVzaEthu2g-12" value="&lt;font style=&quot;font-size: 8px;&quot;&gt;app: simple-deployment&lt;/font&gt;" style="sketch=0;pointerEvents=1;shadow=0;dashed=0;html=1;strokeColor=none;fillColor=#3399FF;labelPosition=center;verticalLabelPosition=bottom;verticalAlign=top;align=center;outlineConnect=0;shape=mxgraph.veeam2.metadata_file;" vertex="1" parent="7CjUzNVX25jVzaEthu2g-3">
          <mxGeometry x="131.25" width="14.000000000000004" height="19.5" as="geometry" />
        </mxCell>
        <mxCell id="7CjUzNVX25jVzaEthu2g-13" value="" style="group" vertex="1" connectable="0" parent="1">
          <mxGeometry x="270" y="450" width="160" height="160" as="geometry" />
        </mxCell>
        <mxCell id="7CjUzNVX25jVzaEthu2g-14" value="" style="rounded=0;whiteSpace=wrap;html=1;fillColor=#d5e8d4;strokeColor=#82b366;" vertex="1" parent="7CjUzNVX25jVzaEthu2g-13">
          <mxGeometry width="160" height="160" as="geometry" />
        </mxCell>
        <mxCell id="7CjUzNVX25jVzaEthu2g-15" value="" style="aspect=fixed;sketch=0;html=1;dashed=0;whitespace=wrap;verticalLabelPosition=bottom;verticalAlign=top;fillColor=#2875E2;strokeColor=#ffffff;points=[[0.005,0.63,0],[0.1,0.2,0],[0.9,0.2,0],[0.5,0,0],[0.995,0.63,0],[0.72,0.99,0],[0.5,1,0],[0.28,0.99,0]];shape=mxgraph.kubernetes.icon2;kubernetesLabel=1;prIcon=pod" vertex="1" parent="7CjUzNVX25jVzaEthu2g-13">
          <mxGeometry width="22.727272727272727" height="21.81818181818182" as="geometry" />
        </mxCell>
        <mxCell id="7CjUzNVX25jVzaEthu2g-16" value="apiserver" style="rounded=0;whiteSpace=wrap;html=1;fillColor=#dae8fc;strokeColor=#6c8ebf;" vertex="1" parent="7CjUzNVX25jVzaEthu2g-13">
          <mxGeometry x="28.75" y="40" width="102.5" height="70" as="geometry" />
        </mxCell>
        <mxCell id="7CjUzNVX25jVzaEthu2g-17" value="" style="image;sketch=0;aspect=fixed;html=1;points=[];align=center;fontSize=12;image=img/lib/mscae/Docker.svg;" vertex="1" parent="7CjUzNVX25jVzaEthu2g-13">
          <mxGeometry x="28.75" y="40" width="22.727272727272727" height="18.636363636363637" as="geometry" />
        </mxCell>
        <mxCell id="7CjUzNVX25jVzaEthu2g-18" style="edgeStyle=orthogonalEdgeStyle;rounded=0;orthogonalLoop=1;jettySize=auto;html=1;exitX=0.5;exitY=1;exitDx=0;exitDy=0;startArrow=oval;startFill=0;endArrow=oval;endFill=0;" edge="1" parent="7CjUzNVX25jVzaEthu2g-13">
          <mxGeometry relative="1" as="geometry">
            <mxPoint x="80.00000000000006" y="110" as="sourcePoint" />
            <mxPoint x="80" y="160" as="targetPoint" />
            <Array as="points">
              <mxPoint x="80" y="105" />
            </Array>
          </mxGeometry>
        </mxCell>
        <mxCell id="7CjUzNVX25jVzaEthu2g-19" value="exposed" style="edgeLabel;html=1;align=center;verticalAlign=middle;resizable=0;points=[];" vertex="1" connectable="0" parent="7CjUzNVX25jVzaEthu2g-18">
          <mxGeometry x="-0.0648" relative="1" as="geometry">
            <mxPoint as="offset" />
          </mxGeometry>
        </mxCell>
        <mxCell id="7CjUzNVX25jVzaEthu2g-20" value="&lt;font style=&quot;font-size: 8px;&quot;&gt;app: simple-deployment&lt;/font&gt;" style="sketch=0;pointerEvents=1;shadow=0;dashed=0;html=1;strokeColor=none;fillColor=#3399FF;labelPosition=center;verticalLabelPosition=bottom;verticalAlign=top;align=center;outlineConnect=0;shape=mxgraph.veeam2.metadata_file;" vertex="1" parent="7CjUzNVX25jVzaEthu2g-13">
          <mxGeometry x="131.25" width="14.000000000000004" height="19.5" as="geometry" />
        </mxCell>
        <mxCell id="7CjUzNVX25jVzaEthu2g-21" value="&lt;font style=&quot;font-size: 11px;&quot;&gt;port: 8000&lt;/font&gt;" style="rounded=0;whiteSpace=wrap;html=1;" vertex="1" parent="7CjUzNVX25jVzaEthu2g-13">
          <mxGeometry x="50" y="100" width="60" height="10" as="geometry" />
        </mxCell>
        <mxCell id="7CjUzNVX25jVzaEthu2g-22" value="simple-deployment-794f78c89-rkc27" style="text;html=1;align=center;verticalAlign=middle;whiteSpace=wrap;rounded=0;" vertex="1" parent="7CjUzNVX25jVzaEthu2g-13">
          <mxGeometry x="-8.52" y="120" width="60" height="40" as="geometry" />
        </mxCell>
        <mxCell id="7CjUzNVX25jVzaEthu2g-23" value="" style="group" vertex="1" connectable="0" parent="1">
          <mxGeometry x="480" y="450" width="160" height="160" as="geometry" />
        </mxCell>
        <mxCell id="7CjUzNVX25jVzaEthu2g-24" value="" style="rounded=0;whiteSpace=wrap;html=1;fillColor=#d5e8d4;strokeColor=#82b366;" vertex="1" parent="7CjUzNVX25jVzaEthu2g-23">
          <mxGeometry width="160" height="160" as="geometry" />
        </mxCell>
        <mxCell id="7CjUzNVX25jVzaEthu2g-25" value="" style="aspect=fixed;sketch=0;html=1;dashed=0;whitespace=wrap;verticalLabelPosition=bottom;verticalAlign=top;fillColor=#2875E2;strokeColor=#ffffff;points=[[0.005,0.63,0],[0.1,0.2,0],[0.9,0.2,0],[0.5,0,0],[0.995,0.63,0],[0.72,0.99,0],[0.5,1,0],[0.28,0.99,0]];shape=mxgraph.kubernetes.icon2;kubernetesLabel=1;prIcon=pod" vertex="1" parent="7CjUzNVX25jVzaEthu2g-23">
          <mxGeometry width="22.727272727272727" height="21.81818181818182" as="geometry" />
        </mxCell>
        <mxCell id="7CjUzNVX25jVzaEthu2g-26" value="apiserver" style="rounded=0;whiteSpace=wrap;html=1;fillColor=#dae8fc;strokeColor=#6c8ebf;" vertex="1" parent="7CjUzNVX25jVzaEthu2g-23">
          <mxGeometry x="28.75" y="40" width="102.5" height="70" as="geometry" />
        </mxCell>
        <mxCell id="7CjUzNVX25jVzaEthu2g-27" value="" style="image;sketch=0;aspect=fixed;html=1;points=[];align=center;fontSize=12;image=img/lib/mscae/Docker.svg;" vertex="1" parent="7CjUzNVX25jVzaEthu2g-23">
          <mxGeometry x="28.75" y="40" width="22.727272727272727" height="18.636363636363637" as="geometry" />
        </mxCell>
        <mxCell id="7CjUzNVX25jVzaEthu2g-28" style="edgeStyle=orthogonalEdgeStyle;rounded=0;orthogonalLoop=1;jettySize=auto;html=1;exitX=0.5;exitY=1;exitDx=0;exitDy=0;startArrow=oval;startFill=0;endArrow=oval;endFill=0;" edge="1" parent="7CjUzNVX25jVzaEthu2g-23">
          <mxGeometry relative="1" as="geometry">
            <mxPoint x="80" y="110" as="sourcePoint" />
            <mxPoint x="80" y="160" as="targetPoint" />
            <Array as="points">
              <mxPoint x="80" y="105" />
            </Array>
          </mxGeometry>
        </mxCell>
        <mxCell id="7CjUzNVX25jVzaEthu2g-29" value="exposed" style="edgeLabel;html=1;align=center;verticalAlign=middle;resizable=0;points=[];" vertex="1" connectable="0" parent="7CjUzNVX25jVzaEthu2g-28">
          <mxGeometry x="-0.0648" relative="1" as="geometry">
            <mxPoint as="offset" />
          </mxGeometry>
        </mxCell>
        <mxCell id="7CjUzNVX25jVzaEthu2g-30" value="&lt;font style=&quot;font-size: 8px;&quot;&gt;app: simple-deployment&lt;/font&gt;" style="sketch=0;pointerEvents=1;shadow=0;dashed=0;html=1;strokeColor=none;fillColor=#3399FF;labelPosition=center;verticalLabelPosition=bottom;verticalAlign=top;align=center;outlineConnect=0;shape=mxgraph.veeam2.metadata_file;" vertex="1" parent="7CjUzNVX25jVzaEthu2g-23">
          <mxGeometry x="131.25" width="14.000000000000004" height="19.5" as="geometry" />
        </mxCell>
        <mxCell id="7CjUzNVX25jVzaEthu2g-31" value="&lt;font style=&quot;font-size: 11px;&quot;&gt;port: 8000&lt;/font&gt;" style="rounded=0;whiteSpace=wrap;html=1;" vertex="1" parent="7CjUzNVX25jVzaEthu2g-23">
          <mxGeometry x="50" y="100" width="60" height="10" as="geometry" />
        </mxCell>
        <mxCell id="7CjUzNVX25jVzaEthu2g-32" value="simple-deployment-794f78c89-szjfg" style="text;html=1;align=center;verticalAlign=middle;whiteSpace=wrap;rounded=0;" vertex="1" parent="7CjUzNVX25jVzaEthu2g-23">
          <mxGeometry x="-10" y="120" width="60" height="40" as="geometry" />
        </mxCell>
        <mxCell id="7CjUzNVX25jVzaEthu2g-43" style="edgeStyle=orthogonalEdgeStyle;rounded=0;orthogonalLoop=1;jettySize=auto;html=1;exitX=0.5;exitY=1;exitDx=0;exitDy=0;" edge="1" parent="1" source="7CjUzNVX25jVzaEthu2g-46" target="7CjUzNVX25jVzaEthu2g-4">
          <mxGeometry relative="1" as="geometry" />
        </mxCell>
        <mxCell id="7CjUzNVX25jVzaEthu2g-44" style="edgeStyle=orthogonalEdgeStyle;rounded=0;orthogonalLoop=1;jettySize=auto;html=1;entryX=0.5;entryY=0;entryDx=0;entryDy=0;" edge="1" parent="1" source="7CjUzNVX25jVzaEthu2g-46" target="7CjUzNVX25jVzaEthu2g-14">
          <mxGeometry relative="1" as="geometry" />
        </mxCell>
        <mxCell id="7CjUzNVX25jVzaEthu2g-45" style="edgeStyle=orthogonalEdgeStyle;rounded=0;orthogonalLoop=1;jettySize=auto;html=1;entryX=0.5;entryY=0;entryDx=0;entryDy=0;" edge="1" parent="1" source="7CjUzNVX25jVzaEthu2g-46" target="7CjUzNVX25jVzaEthu2g-24">
          <mxGeometry relative="1" as="geometry">
            <Array as="points">
              <mxPoint x="350" y="410" />
              <mxPoint x="560" y="410" />
            </Array>
          </mxGeometry>
        </mxCell>
        <mxCell id="7CjUzNVX25jVzaEthu2g-46" value="simple-deployment-794f78c89" style="rounded=0;whiteSpace=wrap;html=1;fillColor=#e1d5e7;strokeColor=#9673a6;" vertex="1" parent="1">
          <mxGeometry x="240" y="270" width="220" height="100" as="geometry" />
        </mxCell>
        <mxCell id="7CjUzNVX25jVzaEthu2g-47" value="" style="aspect=fixed;sketch=0;html=1;dashed=0;whitespace=wrap;verticalLabelPosition=bottom;verticalAlign=top;fillColor=#2875E2;strokeColor=#ffffff;points=[[0.005,0.63,0],[0.1,0.2,0],[0.9,0.2,0],[0.5,0,0],[0.995,0.63,0],[0.72,0.99,0],[0.5,1,0],[0.28,0.99,0]];shape=mxgraph.kubernetes.icon2;prIcon=rs" vertex="1" parent="1">
          <mxGeometry x="240" y="270" width="41.67" height="40" as="geometry" />
        </mxCell>
        <mxCell id="7CjUzNVX25jVzaEthu2g-48" value="" style="sketch=0;pointerEvents=1;shadow=0;dashed=0;html=1;strokeColor=none;fillColor=#005F4B;labelPosition=center;verticalLabelPosition=bottom;verticalAlign=top;align=center;outlineConnect=0;shape=mxgraph.veeam2.tag;" vertex="1" parent="1">
          <mxGeometry x="430" y="270" width="28.000000000000004" height="28.000000000000004" as="geometry" />
        </mxCell>
        <mxCell id="7CjUzNVX25jVzaEthu2g-49" value="&lt;div style=&quot;text-wrap: nowrap; font-size: 10px;&quot;&gt;&lt;font style=&quot;font-size: 10px;&quot;&gt;app: simple-deployment&lt;/font&gt;&lt;/div&gt;&lt;div style=&quot;text-wrap: nowrap; font-size: 10px;&quot;&gt;&lt;font style=&quot;font-size: 10px;&quot;&gt;pod-template-hash:&amp;nbsp;&amp;nbsp;794f78c89&lt;/font&gt;&lt;/div&gt;" style="text;html=1;align=left;verticalAlign=middle;whiteSpace=wrap;rounded=0;" vertex="1" parent="1">
          <mxGeometry x="460" y="269" width="60" height="30" as="geometry" />
        </mxCell>
        <mxCell id="7CjUzNVX25jVzaEthu2g-52" style="edgeStyle=orthogonalEdgeStyle;rounded=0;orthogonalLoop=1;jettySize=auto;html=1;" edge="1" parent="1" source="7CjUzNVX25jVzaEthu2g-50" target="7CjUzNVX25jVzaEthu2g-46">
          <mxGeometry relative="1" as="geometry" />
        </mxCell>
        <mxCell id="7CjUzNVX25jVzaEthu2g-50" value="simple-deployment" style="rounded=0;whiteSpace=wrap;html=1;fillColor=#dae8fc;strokeColor=#6c8ebf;" vertex="1" parent="1">
          <mxGeometry x="240" y="110" width="220" height="100" as="geometry" />
        </mxCell>
        <mxCell id="7CjUzNVX25jVzaEthu2g-51" value="" style="aspect=fixed;sketch=0;html=1;dashed=0;whitespace=wrap;verticalLabelPosition=bottom;verticalAlign=top;fillColor=#2875E2;strokeColor=#ffffff;points=[[0.005,0.63,0],[0.1,0.2,0],[0.9,0.2,0],[0.5,0,0],[0.995,0.63,0],[0.72,0.99,0],[0.5,1,0],[0.28,0.99,0]];shape=mxgraph.kubernetes.icon2;prIcon=deploy" vertex="1" parent="1">
          <mxGeometry x="243" y="110" width="50" height="48" as="geometry" />
        </mxCell>
      </root>
    </mxGraphModel>
  </diagram>
</mxfile>
